<?xml version="1.0" encoding="utf-8"?>
<!-- Generator: Adobe Illustrator 23.0.0, SVG Export Plug-In . SVG Version: 6.00 Build 0)  -->
<svg version="1.0" id="图层_1" xmlns="http://www.w3.org/2000/svg" xmlns:xlink="http://www.w3.org/1999/xlink" x="0px" y="0px"
	 viewBox="0 0 400 400" style="enable-background:new 0 0 400 400;" xml:space="preserve">
<style type="text/css">
	.st0{fill:#2D2D2D;}
	.st1{fill:#FFD72E;stroke:#2D2D2D;stroke-width:5;stroke-linecap:round;stroke-miterlimit:10;}
	.st2{fill:#4BB5EF;}
	.st3{fill:#67CCF9;}
	.st4{fill:#80DAF9;}
	.st5{fill:#A5E7F9;}
	.st6{fill:#FFFFFF;stroke:#2D2D2D;stroke-width:3;stroke-linecap:round;stroke-miterlimit:10;}
	.st7{fill:none;stroke:#2D2D2D;stroke-width:3;stroke-linecap:round;stroke-miterlimit:10;}
	.st8{fill:#62C3F9;stroke:#262626;stroke-width:3;stroke-miterlimit:10;}
	.st9{font-family:'FZCHAOZYTS--GB1-0';}
	.st10{font-size:12.8796px;}
	.st11{fill:none;stroke:#000000;stroke-width:2;stroke-linecap:round;stroke-miterlimit:10;}
	.st12{fill:#FFFFFF;stroke:#000000;stroke-width:3;stroke-miterlimit:10;}
</style>
<g>
	<g>
		<path class="st0" d="M201.03,118.51V258.7l0,0c-0.19,3.48-3.03,6.25-6.56,6.25c-2.82,0-5.23-1.77-6.19-4.26
			c-0.54-1.42-1.91-2.36-3.43-2.36h-0.01c-2.6,0-4.38,2.62-3.43,5.03c2.01,5.1,6.98,8.71,12.8,8.71c7.47,0,13.55-5.96,13.75-13.38
			l0,0V118.51H201.03z"/>
		<polygon class="st0" points="204.22,82.84 199.77,82.84 200.26,69.47 203.73,69.47 		"/>
		<path class="st1" d="M108.75,178.45c3.31-4.22,8.45-6.94,14.23-6.94c5.28,0,10.03,2.26,13.33,5.87c3.31-3.61,8.05-5.87,13.33-5.87
			s10.03,2.26,13.33,5.87c3.31-3.61,8.05-5.87,13.33-5.87s10.03,2.26,13.33,5.87c3.31-3.61,8.05-5.87,13.33-5.87
			s10.03,2.26,13.33,5.87c3.31-3.61,8.05-5.87,13.33-5.87s10.03,2.26,13.33,5.87c3.31-3.61,8.05-5.87,13.33-5.87
			c5.28,0,10.03,2.26,13.33,5.87c3.31-3.61,8.05-5.87,13.33-5.87c5.21,0,9.91,2.21,13.21,5.74c0.11-1.82,0.17-3.65,0.17-5.49
			c0-52.12-42.25-94.37-94.37-94.37s-94.37,42.25-94.37,94.37c0,2.25,0.08,4.48,0.24,6.69H108.75z"/>
		<path class="st1" d="M201.67,78.88c0,0-68.67,16.88-66.78,97.11"/>
		<path class="st1" d="M202.22,78.88c0,0,68.67,16.88,66.78,97.11"/>
	</g>
	<g>
		<path class="st2" d="M337.41,216.76c-2.64,0-5.22,0.29-7.7,0.84c-6.57-8.34-16.76-13.7-28.2-13.7c-9.51,0-18.15,3.71-24.58,9.75
			c-4.58-2.12-9.69-3.32-15.07-3.32c-9.54,0-18.2,3.73-24.63,9.79c-2.26-0.45-4.59-0.68-6.98-0.68c-8.45,0-16.21,2.93-22.34,7.81
			c-7.75-11.5-20.89-19.06-35.79-19.06c-16.47,0-30.78,9.23-38.04,22.8c-4.03-2.56-8.8-4.05-13.93-4.05c-2.47,0-4.86,0.35-7.12,1
			c-4.41-14.83-18.14-25.64-34.4-25.64c-19.83,0-35.9,16.07-35.9,35.9c0,19.83,16.07,35.9,35.9,35.9c7.51,0,14.48-2.31,20.25-6.26
			c4.7,6.7,12.48,11.08,21.28,11.08c5.7,0,10.97-1.84,15.26-4.96c7.6,12.3,21.2,20.49,36.71,20.49c12.77,0,24.24-5.55,32.14-14.37
			c6.54,6.87,15.76,11.16,26,11.16c9.54,0,18.2-3.73,24.63-9.79c2.26,0.45,4.59,0.68,6.98,0.68c9.51,0,18.15-3.71,24.58-9.75
			c4.58,2.12,9.69,3.32,15.07,3.32c2.64,0,5.22-0.29,7.7-0.84c6.57,8.34,16.76,13.7,28.2,13.7c19.83,0,35.9-16.07,35.9-35.9
			C373.31,232.84,357.24,216.76,337.41,216.76z"/>
		<path class="st3" d="M303.14,223.62c-2.64,0-5.22,0.29-7.7,0.84c-6.57-8.34-16.76-13.7-28.2-13.7c-9.51,0-18.15,3.71-24.58,9.75
			c-4.58-2.12-9.69-3.32-15.07-3.32c-9.54,0-18.2,3.73-24.63,9.79c-2.26-0.45-4.59-0.68-6.98-0.68c-8.45,0-16.21,2.93-22.34,7.81
			c-7.75-11.5-20.89-19.06-35.79-19.06c-16.47,0-30.78,9.23-38.04,22.8c-4.03-2.56-8.8-4.05-13.93-4.05c-2.47,0-4.86,0.35-7.12,1
			c-4.41-14.83-18.14-25.64-34.4-25.64c-19.83,0-35.9,16.07-35.9,35.9c0,19.83,16.07,35.9,35.9,35.9c7.51,0,14.48-2.31,20.25-6.26
			c4.7,6.7,12.48,11.08,21.28,11.08c5.7,0,10.97-1.84,15.26-4.96c7.6,12.3,21.2,20.49,36.71,20.49c12.77,0,24.24-5.55,32.14-14.37
			c6.54,6.87,15.76,11.16,26,11.16c9.54,0,18.2-3.73,24.63-9.79c2.26,0.45,4.59,0.68,6.98,0.68c9.51,0,18.15-3.71,24.58-9.75
			c4.58,2.12,9.69,3.32,15.07,3.32c2.64,0,5.22-0.29,7.7-0.84c6.57,8.34,16.76,13.7,28.2,13.7c19.83,0,35.9-16.07,35.9-35.9
			C339.04,239.69,322.97,223.62,303.14,223.62z"/>
		<path class="st4" d="M359.22,232.96c-2.64,0-5.22,0.29-7.7,0.84c-6.57-8.34-16.76-13.7-28.2-13.7c-9.51,0-18.15,3.71-24.58,9.75
			c-4.58-2.12-9.69-3.32-15.07-3.32c-9.54,0-18.2,3.73-24.63,9.79c-2.26-0.45-4.59-0.68-6.98-0.68c-8.45,0-16.21,2.93-22.34,7.81
			c-7.75-11.5-20.89-19.06-35.79-19.06c-16.47,0-30.78,9.23-38.04,22.8c-4.03-2.56-8.8-4.05-13.93-4.05c-2.47,0-4.86,0.35-7.12,1
			c-4.41-14.83-18.14-25.64-34.4-25.64c-19.83,0-35.9,16.07-35.9,35.9c0,19.83,16.07,35.9,35.9,35.9c7.51,0,14.48-2.31,20.25-6.26
			c4.7,6.7,12.48,11.08,21.28,11.08c5.7,0,10.97-1.84,15.26-4.96c7.6,12.3,21.2,20.49,36.71,20.49c12.77,0,24.24-5.55,32.14-14.37
			c6.54,6.87,15.76,11.16,26,11.16c9.54,0,18.2-3.73,24.63-9.79c2.26,0.45,4.59,0.68,6.98,0.68c9.51,0,18.15-3.71,24.58-9.75
			c4.58,2.12,9.69,3.32,15.07,3.32c2.64,0,5.22-0.29,7.7-0.84c6.57,8.34,16.76,13.7,28.2,13.7c19.83,0,35.9-16.07,35.9-35.9
			C395.12,249.04,379.04,232.96,359.22,232.96z"/>
		<path class="st5" d="M308.12,242.31c-2.64,0-5.22,0.29-7.7,0.84c-6.57-8.34-16.76-13.7-28.2-13.7c-9.51,0-18.15,3.71-24.58,9.75
			c-4.58-2.12-9.69-3.32-15.07-3.32c-9.54,0-18.2,3.73-24.63,9.79c-2.26-0.45-4.59-0.68-6.98-0.68c-8.45,0-16.21,2.93-22.34,7.81
			c-7.75-11.5-20.89-19.06-35.79-19.06c-16.47,0-30.78,9.23-38.04,22.8c-4.03-2.56-8.8-4.05-13.93-4.05c-2.47,0-4.86,0.35-7.12,1
			c-4.41-14.83-18.14-25.64-34.4-25.64c-19.83,0-35.9,16.07-35.9,35.9s16.07,35.9,35.9,35.9c7.51,0,14.48-2.31,20.25-6.26
			c4.7,6.7,12.48,11.08,21.28,11.08c5.7,0,10.97-1.84,15.26-4.96c7.6,12.3,21.2,20.49,36.71,20.49c12.77,0,24.24-5.55,32.14-14.37
			c6.54,6.87,15.76,11.16,26,11.16c9.54,0,18.2-3.73,24.63-9.79c2.26,0.45,4.59,0.68,6.98,0.68c9.51,0,18.15-3.71,24.58-9.75
			c4.58,2.12,9.69,3.32,15.07,3.32c2.64,0,5.22-0.29,7.7-0.84c6.57,8.34,16.76,13.7,28.2,13.7c19.83,0,35.9-16.07,35.9-35.9
			C344.02,258.38,327.95,242.31,308.12,242.31z"/>
	</g>
	<g>
		<circle class="st6" cx="189.62" cy="132.13" r="8.01"/>
		<circle class="st6" cx="213.23" cy="132.13" r="8.01"/>
		<circle class="st0" cx="189.52" cy="130.3" r="2.66"/>
		<circle class="st0" cx="214.04" cy="133.18" r="2.74"/>
	</g>
	<path class="st7" d="M183.59,153.14c0,0,2.49,2.48,5.53,0c0,0,3.32-2.48,5.25,0c0,0,2.76,1.86,5.53,0c0,0,3.15-2.79,5.45,0
		c0,0,2.85,1.86,5.33,0c0,0,2.76-2.48,5.53,0c0,0,3.04,1.86,5.53,0"/>
	<path class="st8" d="M221.59,109.34h-40.09c-4.85,0-8.81-3.97-8.81-8.81v-4.17c0-4.85,3.97-8.81,8.81-8.81h40.09
		c4.85,0,8.81,3.97,8.81,8.81v4.17C230.41,105.38,226.44,109.34,221.59,109.34z"/>
	<text transform="matrix(1 0 0 1 181.978 102.9697)" class="st9 st10">退热贴</text>
	<path class="st11" d="M149.25,66.25c0,0,9.91,3.47,5.45,13.38c-4.46,9.91-5.94,9.91-1.98,15.85"/>
	<path class="st11" d="M155.69,66.25c0,0,9.91,3.47,5.45,13.38c-4.46,9.91-5.94,9.91-1.98,15.85"/>
	<path class="st11" d="M162.13,66.25c0,0,9.91,3.47,5.45,13.38c-4.46,9.91-5.94,9.91-1.98,15.85"/>
	<path class="st12" d="M304.74,155.13c-0.14,0-0.29,0-0.43,0.01c-1.12-3.02-4.02-5.18-7.44-5.18c-3.55,0-6.56,2.34-7.56,5.55
		c-0.69-0.25-1.43-0.39-2.2-0.39c-3.55,0-6.43,2.88-6.43,6.43c0,0.35,0.03,0.7,0.08,1.03h31.61
		C312.28,158.46,308.9,155.13,304.74,155.13z"/>
	<path class="st12" d="M130.63,113.34c-0.21,0-0.41,0.01-0.61,0.02c-1.59-4.3-5.72-7.37-10.58-7.37c-5.05,0-9.32,3.32-10.76,7.9
		c-0.98-0.35-2.03-0.55-3.13-0.55c-5.05,0-9.15,4.1-9.15,9.15c0,0.5,0.04,0.99,0.12,1.47h44.96
		C141.36,118.07,136.55,113.34,130.63,113.34z"/>
	<path class="st4" d="M128.52,65.01c-2.21,0.05-3.56,6.82-2.2,8.57c0.75,0.97,4.29,1.06,4.89,0
		C132.32,71.62,130.76,64.96,128.52,65.01z"/>
	<path class="st4" d="M104.74,78.38c-2.21,0.05-3.56,6.82-2.2,8.57c0.75,0.97,4.29,1.06,4.89,0C108.55,85,106.99,78.34,104.74,78.38
		z"/>
	<path class="st4" d="M274.65,90.77c-2.21,0.05-3.56,6.82-2.2,8.57c0.75,0.97,4.29,1.06,4.89,0
		C278.46,97.38,276.9,90.72,274.65,90.77z"/>
	<path class="st4" d="M253.85,69.47c-2.21,0.05-3.56,6.82-2.2,8.57c0.75,0.97,4.29,1.06,4.89,0
		C257.65,76.08,256.09,69.42,253.85,69.47z"/>
	<path class="st4" d="M247.9,124.95c-2.21,0.05-3.56,6.82-2.2,8.57c0.75,0.97,4.29,1.06,4.89,0
		C251.71,131.56,250.15,124.9,247.9,124.95z"/>
	<path class="st4" d="M277.63,183.4c-2.21,0.05-3.56,6.82-2.2,8.57c0.75,0.97,4.29,1.06,4.89,0
		C281.43,190.02,279.87,183.35,277.63,183.4z"/>
	<path class="st4" d="M147.34,183.4c-2.21,0.05-3.56,6.82-2.2,8.57c0.75,0.97,4.29,1.06,4.89,0
		C151.15,190.02,149.59,183.35,147.34,183.4z"/>
	<path class="st4" d="M118.61,211.64c-2.21,0.05-3.56,6.82-2.2,8.57c0.75,0.97,4.29,1.06,4.89,0
		C122.42,218.25,120.86,211.59,118.61,211.64z"/>
	<path class="st4" d="M113.66,101.17c-2.21,0.05-3.56,6.82-2.2,8.57c0.75,0.97,4.29,1.06,4.89,0
		C117.46,107.79,115.9,101.12,113.66,101.17z"/>
</g>
</svg>
